<?xml version="1.0" encoding="utf-8"?>
<!-- Generator: Adobe Illustrator 21.1.0, SVG Export Plug-In . SVG Version: 6.00 Build 0)  -->
<svg version="1.1" xmlns="http://www.w3.org/2000/svg" xmlns:xlink="http://www.w3.org/1999/xlink" x="0px" y="0px"
	 viewBox="0 0 1034.6 340" style="enable-background:new 0 0 1034.6 340;" xml:space="preserve">
<style type="text/css">
	.st0{display:none;}
	.st1{display:inline;fill:#20201E;}
	.st2{fill:#FFFFFF;}
	.st3{fill-rule:evenodd;clip-rule:evenodd;stroke:#FFFFFF;stroke-width:6.4;stroke-linejoin:round;}
	.st4{fill:#B40019;}
</style>
<g id="background" class="st0">
	<rect y="-5" class="st1" width="1034.6" height="345"/>
</g>
<g id="Text">
	<g>
		<g>
			<path class="st2" d="M56.4,289.1H63v2.8h0.1c1.6-2.5,3.4-3.5,6.1-3.5c5.7,0,8.3,4.2,8.3,14.2c0,10-2.6,14.2-8.3,14.2
				c-2.6,0-4.4-1-5.8-3.2h-0.1v11.3h-6.9V289.1z M67,311.4c3,0,3.6-3,3.6-8.9c0-5.8-0.6-8.9-3.6-8.9c-3,0-3.6,3-3.6,8.9
				C63.3,308.4,63.9,311.4,67,311.4z"/>
			<path class="st2" d="M91.1,288.4c8.3-0.2,10.6,4.8,10.6,14.2c0,9.2-2.8,14.2-10.6,14.2c-8.3,0.1-10.6-4.8-10.6-14.2
				C80.5,293.3,83.3,288.4,91.1,288.4z M91.1,312c2.8,0,3.7-2.7,3.7-9.5c0-6.8-0.9-9.5-3.7-9.5c-3.4,0-3.7,4-3.7,9.5
				C87.4,308,87.7,312,91.1,312z"/>
			<path class="st2" d="M103,289.1h6.9l3.1,19.1h0.1l3.4-19.1h7.5l3.6,19.1h0.1l3.3-19.1h6.6l-5.8,26.9h-7.9l-3.6-19.1h-0.1
				l-3.4,19.1h-8L103,289.1z"/>
			<path class="st2" d="M145.5,303.6v2.1c0,3.2,0.9,6.3,3.4,6.3c2.4,0,3.3-1.7,3.7-5.1h6.2c-0.3,6.3-3.1,9.8-9.8,9.8
				c-10,0-10.4-7.7-10.4-14.4c0-7.2,1.4-13.9,10.7-13.9c8.1,0,9.9,5.4,9.9,13.7v1.6H145.5z M152.6,299.5c-0.1-4.1-0.6-6.4-3.5-6.4
				c-2.8,0-3.5,2.8-3.5,5.4v1H152.6z"/>
			<path class="st2" d="M162.8,289.1h6.6v3.6h0.1c1.4-2.6,3.4-4.3,6.2-4.3c0.4,0,0.9,0,1.3,0.1v6.6c-0.8,0-1.4-0.1-2.2-0.1
				c-2.4,0-5.1,1.3-5.1,4.8V316h-6.9V289.1z"/>
			<path class="st2" d="M185.3,303.6v2.1c0,3.2,0.9,6.3,3.4,6.3c2.4,0,3.3-1.7,3.7-5.1h6.2c-0.3,6.3-3.1,9.8-9.8,9.8
				c-10,0-10.4-7.7-10.4-14.4c0-7.2,1.4-13.9,10.7-13.9c8.1,0,9.9,5.4,9.9,13.7v1.6H185.3z M192.4,299.5c-0.1-4.1-0.6-6.4-3.5-6.4
				c-2.8,0-3.5,2.8-3.5,5.4v1H192.4z"/>
			<path class="st2" d="M216.4,313.1h-0.1c-1.6,2.6-3.4,3.6-6.1,3.6c-5.6,0-8.3-4.2-8.3-14.2c0-10,2.6-14.2,8.3-14.2
				c2.6,0,4.4,1,5.8,3.2h0.1v-11.3h6.9V316h-6.6V313.1z M212.4,311.4c3.1,0,3.6-3,3.6-8.9c0-5.8-0.6-8.9-3.6-8.9c-3,0-3.6,3-3.6,8.9
				C208.8,308.4,209.4,311.4,212.4,311.4z"/>
			<path class="st2" d="M239.6,280.3h6.9v11.3h0.1c1.4-2.2,3.2-3.2,5.8-3.2c5.7,0,8.3,4.2,8.3,14.2c0,10-2.6,14.2-8.3,14.2
				c-2.8,0-4.6-1-6.1-3.6h-0.1v2.9h-6.6V280.3z M250.1,311.4c3,0,3.6-3,3.6-8.9c0-5.8-0.6-8.9-3.6-8.9c-3,0-3.6,3-3.6,8.9
				C246.5,308.4,247.1,311.4,250.1,311.4z"/>
			<path class="st2" d="M264.1,319.6c0.6,0.1,1.2,0.1,1.8,0.1c2.6,0,3.5-1.4,3.7-3.8l-7.6-26.9h7.2l4,18.6h0.1l3.5-18.6h6.9
				l-6.5,25.1c-2.4,9.3-4,10.6-10.4,10.6h-2.8V319.6z"/>
		</g>
		<g>
			<path class="st2" d="M333.5,262.4h-23v15.1h21.6v10.6h-21.6v17.3h23.9V316h-36.8v-64.3h35.9V262.4z"/>
			<path class="st2" d="M360.4,251.7l9.2,45.4h0.2l9.3-45.4h19.2V316h-11.9v-51.3h-0.2L374.8,316h-10.1l-11.4-51.3h-0.2V316h-11.9
				v-64.3H360.4z"/>
			<path class="st2" d="M430.2,251.7c3.3,0,6.1,0.6,8.3,1.7c2.3,1.1,4.1,2.6,5.4,4.4c1.4,1.8,2.4,3.9,3,6.2c0.6,2.3,0.9,4.7,0.9,7.1
				c0,3.3-0.5,6.2-1.5,8.6c-1,2.5-2.4,4.5-4.1,6c-1.8,1.6-3.9,2.7-6.4,3.5c-2.5,0.8-5.3,1.2-8.4,1.2h-6.9V316h-13v-64.3H430.2z
				 M426.2,280.8c2.6,0,4.7-0.8,6.3-2.3c1.6-1.6,2.4-4,2.4-7.3c0-3.2-0.7-5.7-2.1-7.4c-1.4-1.7-3.7-2.5-6.9-2.5h-5.4v19.5H426.2z"/>
		</g>
	</g>
</g>
<g id="new_rockhand">
	<g>
		<g>
			<polygon class="st3" points="110.5,149.6 110.5,21.3 59.8,35.9 59.8,228.8 175.8,172.7 162.6,127 			"/>
			<polygon class="st3" points="586,146.9 541.6,112.8 614.4,61.4 590.4,27.4 469.2,113.8 586,210.2 586,230.9 626,218.2 626,101.5 
				586,109.8 			"/>
			<polygon class="st3" points="753.6,66.6 753.6,17.3 646.4,55.3 646.4,228.7 753.6,192.5 753.6,138.7 695.1,162.1 695.1,144.5 
				753.6,121.2 753.6,83.2 695.1,104.4 695.1,90 			"/>
			<path class="st3" d="M463.8,101.3L349.5,20.1v207.7l41.8-13.1v-50.5l51.5,44.4l30.4-31.6l-46.8-42.9L463.8,101.3z M390,121.5
				V93.6l18.7,14.8L390,121.5z"/>
			<path class="st3" d="M192.6,226.4l84.4-41.5l24.5,26.5l34.3-33.1L192.6,24.5V226.4z M234.4,128l15.3,17.5l-15.3,7.9V128z"/>
		</g>
		<circle class="st4" cx="903.6" cy="124.6" r="106.3"/>
		<path d="M939.9,209.3h-67.3c-1.3,0-2.5-0.7-3.2-1.7l-28-42.3c-0.4-0.6-0.6-1.4-0.6-2.1v-31.7c0-1.3,0.6-2.4,1.6-3.2l13.5-9.6
			c0.3-0.2,0.5-0.3,0.8-0.4l0-59.5c0-1.2,0.6-2.4,1.6-3.1l24-17.8c1.2-0.9,2.7-1,4.1-0.3c1.3,0.7,2.1,2,2.1,3.5v55.6l16.8,6.5
			c0.2-0.9,0.8-1.6,1.5-2.1c1.1-0.7,2.4-0.9,3.6-0.4l19.2,7.4V53.2c0-1.5,0.8-2.8,2.1-3.5c1.3-0.7,2.9-0.5,4.1,0.3l23.9,17.7
			c1,0.7,1.6,1.9,1.6,3.1v92.3c0,0.5-0.1,1-0.3,1.5l-17.5,42.3C942.9,208.4,941.5,209.3,939.9,209.3z M874.7,201.5h62.6l16.2-39.2
			V72.8l-16.2-12l0,56c0,1.2-0.6,2.4-1.5,3.1l-2.5,1.9c-1.2,0.9-2.8,1-4.1,0.4c-1.3-0.7-2.2-2-2.2-3.5v-3.6l-14.4-5.6
			c-0.2,0.9-0.8,1.6-1.5,2.1c-1.1,0.7-2.4,0.9-3.6,0.4l-16.7-6.5V117c0,1.2-0.6,2.4-1.6,3.1l-2.4,1.8c-1.2,0.9-2.7,1-4.1,0.3
			c-1.3-0.7-2.1-2-2.1-3.5l0-70.1l-16.2,12l0,75.9c0,1.2-0.6,2.4-1.6,3.1l-2.4,1.8c-1.2,0.9-2.8,1-4.1,0.4c-1.3-0.7-2.1-2-2.1-3.5
			v-9.1l-5.8,4.1V162L874.7,201.5z"/>
		<path class="st2" d="M937.3,116.9c0,1.2-0.6,2.4-1.5,3.1l-2.5,1.9c-1.2,0.9-2.8,1-4.1,0.4c-1.3-0.7-2.2-2-2.2-3.5v-3.6l-14.4-5.6
			c-0.2,0.9-0.8,1.6-1.5,2.1c-1.1,0.7-2.4,0.9-3.6,0.4l-16.7-6.5V117c0,1.2-0.6,2.4-1.6,3.1l-2.4,1.8c-1.2,0.9-2.7,1-4.1,0.3
			c-1.3-0.7-2.1-2-2.1-3.5l0-70.1l-16.2,12l0,75.9c0,1.2-0.6,2.4-1.6,3.1l-2.4,1.8c-1.2,0.9-2.8,1-4.1,0.4c-1.3-0.7-2.1-2-2.1-3.5
			v-9.1l-5.8,4.1V162l26.2,39.6h62.6l16.2-39.2V72.8l-16.2-12L937.3,116.9z"/>
	</g>
</g>
<g id="hilfslinien" class="st0">
</g>
</svg>
