<?xml version="1.0" encoding="utf-8"?>
<!-- Generator: Adobe Illustrator 24.1.0, SVG Export Plug-In . SVG Version: 6.00 Build 0)  -->
<svg version="1.1" id="Layer_2_1_" xmlns="http://www.w3.org/2000/svg" xmlns:xlink="http://www.w3.org/1999/xlink" x="0px" y="0px"
	 viewBox="0 0 204 140.2" style="enable-background:new 0 0 204 140.2;" xml:space="preserve">
<style type="text/css">
	.st0{enable-background:new    ;}
</style>
<g>
	<g class="st0">
		<path d="M108.9,33.7h-6.4v-0.6c0.3,0,0.6-0.1,1.1-0.2c0.4-0.1,0.6-0.2,0.6-0.3v-0.1c0-0.1,0-0.1-0.1-0.2l-1-2.4H99
			c-0.1,0.2-0.2,0.5-0.3,0.8c-0.1,0.3-0.2,0.6-0.3,0.8c-0.1,0.3-0.2,0.5-0.2,0.7c0,0.1,0,0.2,0,0.3c0,0.2,0.1,0.3,0.4,0.5
			c0.3,0.1,0.7,0.2,1.3,0.3v0.6h-4.8v-0.6c0.2,0,0.4,0,0.6-0.1c0.2,0,0.4-0.1,0.5-0.2c0.2-0.1,0.4-0.3,0.6-0.5s0.3-0.4,0.4-0.7
			c0.6-1.6,1.3-3.1,1.9-4.7s1.4-3.3,2.1-5.2h1.7c1.1,2.7,1.9,4.8,2.5,6.3s1.1,2.8,1.6,3.9c0.1,0.2,0.2,0.3,0.3,0.5
			c0.1,0.1,0.3,0.3,0.5,0.4c0.2,0.1,0.3,0.2,0.5,0.2s0.4,0.1,0.6,0.1C108.9,33.3,108.9,33.7,108.9,33.7z M102.7,29l-1.7-4.3L99.3,29
			H102.7z"/>
	</g>
	<g class="st0">
		<path d="M28.6,42.6c-0.2,0-0.3,0.1-0.5,0.1c-0.2,0.1-0.3,0.1-0.5,0.2c-0.3,0.1-0.4,0.3-0.5,0.5s-0.2,0.4-0.3,0.6
			c-0.3,0.8-0.8,2.2-1.4,4c-0.6,1.9-1.3,3.8-2,5.8h-1.7L18.6,45l-2.8,8.8h-1.7c-0.9-2.7-1.6-4.8-2.1-6.2c-0.5-1.5-0.9-2.7-1.2-3.7
			c-0.1-0.3-0.2-0.5-0.4-0.7s-0.3-0.3-0.5-0.4c-0.1-0.1-0.3-0.2-0.5-0.2S9,42.5,8.8,42.5v-0.6h6.3v0.6c-0.4,0-0.6,0.1-0.8,0.1
			s-0.3,0.1-0.4,0.1c-0.1,0-0.2,0.1-0.2,0.1c0,0.1,0,0.1,0,0.1c0,0.1,0,0.2,0,0.2c0,0.1,0,0.2,0.1,0.2c0.1,0.4,0.4,1.2,0.8,2.5
			c0.4,1.2,0.9,2.7,1.5,4.5l2.7-8.6h1.8l3.1,8.8c0.5-1.4,0.8-2.6,1.1-3.5c0.3-0.9,0.5-1.7,0.7-2.3c0.1-0.4,0.2-0.7,0.3-1
			s0.1-0.5,0.1-0.7c0-0.1-0.1-0.2-0.2-0.3s-0.3-0.2-0.4-0.2c-0.2,0-0.4-0.1-0.6-0.1s-0.5-0.1-0.6-0.1v-0.7h4.7v1H28.6z"/>
		<path d="M38.2,53.5c-0.2,0.1-0.5,0.2-0.9,0.3c-0.3,0.1-0.7,0.1-1.1,0.1c-0.7,0-1.2-0.1-1.5-0.3s-0.5-0.5-0.7-0.9l0,0
			c-0.2,0.2-0.4,0.3-0.5,0.5c-0.2,0.1-0.4,0.2-0.6,0.3c-0.3,0.1-0.5,0.2-0.8,0.3C32,54,31.7,54,31.3,54c-0.6,0-1.2-0.2-1.6-0.6
			S29,52.5,29,51.9c0-0.4,0-0.7,0.1-0.9c0.1-0.3,0.2-0.5,0.4-0.7c0.2-0.2,0.4-0.3,0.6-0.4c0.2-0.1,0.5-0.2,0.7-0.3
			c0.5-0.2,1.1-0.4,1.8-0.6c0.7-0.2,1.2-0.4,1.5-0.5v-0.8c0-0.1,0-0.3,0-0.5S34,46.7,34,46.5c-0.1-0.2-0.2-0.3-0.4-0.4
			c-0.2-0.1-0.4-0.2-0.7-0.2c-0.2,0-0.4,0-0.6,0.1s-0.3,0.1-0.4,0.2c0,0.1,0.1,0.3,0.1,0.5s0.1,0.4,0.1,0.7c0,0.1,0,0.2-0.1,0.4
			c0,0.1-0.1,0.3-0.2,0.3c-0.1,0.1-0.3,0.2-0.4,0.3c-0.2,0.1-0.4,0.1-0.7,0.1c-0.5,0-0.8-0.1-1.1-0.3c-0.2-0.2-0.4-0.5-0.4-0.9
			c0-0.3,0.1-0.6,0.4-0.8c0.2-0.2,0.5-0.5,0.9-0.6c0.3-0.2,0.8-0.3,1.2-0.4c0.5-0.1,0.9-0.1,1.3-0.1c0.5,0,1,0,1.5,0.1
			s0.9,0.2,1.2,0.4s0.6,0.5,0.8,0.8c0.2,0.4,0.3,0.8,0.3,1.4c0,0.6,0,1.4,0,2.2c0,0.9,0,1.4,0,1.7c0,0.2,0,0.4,0.1,0.6
			c0.1,0.1,0.2,0.3,0.3,0.3s0.2,0.1,0.4,0.1s0.4,0,0.6,0C38.2,53,38.2,53.5,38.2,53.5z M34.1,49.2c-0.3,0.1-0.6,0.2-0.9,0.4
			c-0.3,0.1-0.6,0.3-0.7,0.4c-0.2,0.2-0.4,0.4-0.5,0.6s-0.2,0.5-0.2,0.9s0.1,0.7,0.3,0.9c0.2,0.2,0.4,0.3,0.7,0.3s0.6-0.1,0.8-0.2
			c0.2-0.1,0.4-0.3,0.5-0.5L34.1,49.2z"/>
		<path d="M47.1,47c0,0.4-0.1,0.8-0.4,1.1s-0.6,0.5-1,0.5s-0.7-0.1-1-0.3s-0.4-0.5-0.4-0.9c0-0.2,0-0.3,0-0.5s0.1-0.2,0.1-0.3
			c-0.3,0-0.5,0.1-0.8,0.3s-0.5,0.4-0.7,0.7v4.6c0,0.2,0,0.4,0.1,0.5s0.2,0.2,0.3,0.3s0.3,0.1,0.6,0.2c0.3,0,0.5,0.1,0.6,0.1v0.6
			h-5.6v-0.6c0.1,0,0.3,0,0.4,0c0.1,0,0.3,0,0.4-0.1c0.2-0.1,0.3-0.2,0.4-0.3s0.1-0.3,0.1-0.5v-4.8c0-0.2,0-0.4-0.1-0.5
			c-0.1-0.2-0.2-0.3-0.3-0.4c-0.1-0.1-0.2-0.1-0.4-0.2c-0.2,0-0.3-0.1-0.5-0.1v-0.6l4-0.2l0.1,0.1v1.2l0,0c0.4-0.4,0.8-0.8,1.2-1
			c0.4-0.3,0.9-0.4,1.3-0.4c0.5,0,0.9,0.2,1.2,0.5C47,46.1,47.1,46.5,47.1,47z"/>
		<path d="M58.7,53.7h-5v-0.6c0.1,0,0.2,0,0.4,0s0.3,0,0.3-0.1c0.1-0.1,0.2-0.1,0.2-0.3s0.1-0.3,0.1-0.5v-3.9c0-0.6-0.1-1-0.3-1.3
			s-0.5-0.4-0.9-0.4c-0.2,0-0.4,0-0.6,0.1s-0.4,0.2-0.6,0.3c-0.2,0.1-0.3,0.2-0.4,0.3c-0.1,0.1-0.2,0.2-0.2,0.3v4.5
			c0,0.2,0,0.4,0.1,0.5s0.1,0.2,0.3,0.3c0.1,0.1,0.2,0.1,0.3,0.1s0.3,0.1,0.4,0.1v0.6h-5v-0.6c0.1,0,0.3,0,0.4,0
			c0.1,0,0.3,0,0.4-0.1c0.2-0.1,0.3-0.2,0.4-0.3s0.1-0.3,0.1-0.5v-4.8c0-0.2,0-0.3-0.1-0.5s-0.2-0.3-0.3-0.4
			c-0.1-0.1-0.2-0.1-0.4-0.2c-0.2,0-0.3-0.1-0.5-0.1v-0.6l4-0.2l0.1,0.1v1.2l0,0c0.2-0.1,0.3-0.3,0.6-0.5s0.4-0.4,0.6-0.5
			c0.2-0.1,0.5-0.2,0.8-0.3s0.7-0.1,1.1-0.1c0.9,0,1.6,0.3,2,0.8c0.5,0.5,0.7,1.2,0.7,2v4.1c0,0.2,0,0.4,0.1,0.5s0.2,0.2,0.3,0.3
			c0.1,0,0.2,0.1,0.3,0.1s0.3,0.1,0.4,0.1L58.7,53.7L58.7,53.7z"/>
		<path d="M68.4,51.7c-0.2,0.3-0.4,0.6-0.7,0.9c-0.3,0.3-0.6,0.5-0.9,0.7c-0.4,0.2-0.7,0.4-1.1,0.5S64.9,54,64.4,54
			c-0.8,0-1.5-0.1-2.1-0.3s-1.1-0.5-1.5-0.9s-0.7-0.9-0.9-1.4s-0.3-1.1-0.3-1.7c0-0.6,0.1-1.1,0.3-1.6s0.5-1,0.9-1.4s0.9-0.7,1.4-1
			c0.6-0.2,1.2-0.4,1.9-0.4c0.8,0,1.4,0.1,1.9,0.3s0.9,0.4,1.2,0.8c0.3,0.3,0.5,0.7,0.7,1.1s0.2,0.9,0.2,1.3v0.5h-5.6
			c0,1.1,0.2,2,0.7,2.6c0.4,0.6,1.1,0.9,2.1,0.9c0.5,0,1-0.1,1.4-0.4s0.8-0.6,1.1-1.1L68.4,51.7z M65.2,48.6c0-0.3,0-0.7,0-1
			S65.1,47,65,46.7s-0.2-0.5-0.4-0.6c-0.2-0.1-0.4-0.2-0.6-0.2c-0.4,0-0.8,0.2-1,0.6s-0.4,1.1-0.4,2L65.2,48.6z"/>
		<path d="M77.4,47c0,0.4-0.1,0.8-0.4,1.1s-0.6,0.5-1,0.5s-0.7-0.1-1-0.3s-0.4-0.5-0.4-0.9c0-0.2,0-0.3,0-0.5s0.1-0.2,0.1-0.3
			c-0.3,0-0.5,0.1-0.8,0.3s-0.5,0.4-0.7,0.7v4.6c0,0.2,0,0.4,0.1,0.5s0.2,0.2,0.3,0.3c0.1,0.1,0.3,0.1,0.6,0.2
			c0.3,0,0.5,0.1,0.6,0.1v0.6h-5.6v-0.6c0.1,0,0.3,0,0.4,0s0.3,0,0.4-0.1c0.2-0.1,0.3-0.2,0.4-0.3s0.1-0.3,0.1-0.5v-4.8
			c0-0.2,0-0.4-0.1-0.5c-0.1-0.2-0.2-0.3-0.3-0.4c-0.1-0.1-0.2-0.1-0.4-0.2c-0.2,0-0.3-0.1-0.5-0.1v-0.6l4-0.2l0.1,0.1v1.2l0,0
			c0.4-0.4,0.8-0.8,1.2-1c0.4-0.3,0.9-0.4,1.3-0.4c0.5,0,0.9,0.2,1.2,0.5C77.3,46.1,77.4,46.5,77.4,47z"/>
		<path d="M98.6,53.7h-6.4v-0.6c0.2,0,0.4,0,0.7-0.1c0.3,0,0.5-0.1,0.6-0.1c0.2-0.1,0.4-0.2,0.4-0.3S94,52.2,94,52v-8.8l-4,10.3h-1
			c0-0.2-0.2-0.5-0.4-1.1c-0.2-0.5-0.4-1-0.5-1.3l-3-8.1v7.2c0,0.7,0,1.2,0.1,1.6c0.1,0.4,0.2,0.6,0.4,0.8c0.1,0.1,0.4,0.2,0.7,0.3
			c0.4,0.1,0.6,0.2,0.8,0.2v0.6H82v-0.6c0.1,0,0.4-0.1,0.7-0.1c0.3-0.1,0.6-0.2,0.8-0.3c0.2-0.2,0.4-0.4,0.4-0.8S84,51,84,50.3v-5.8
			c0-0.4,0-0.6-0.1-0.9s-0.2-0.4-0.4-0.6c-0.2-0.2-0.4-0.3-0.7-0.3c-0.2-0.1-0.5-0.1-0.7-0.1V42h5.4l2.9,7.8l2.4-6.3
			c0.1-0.2,0.2-0.5,0.2-0.8c0.1-0.3,0.1-0.5,0.1-0.6h5.2v0.6c-0.2,0-0.4,0-0.6,0.1s-0.4,0.1-0.6,0.1c-0.2,0.1-0.4,0.2-0.4,0.3
			c-0.1,0.2-0.1,0.3-0.1,0.5V52c0,0.2,0,0.4,0.1,0.5s0.2,0.3,0.4,0.4c0.1,0,0.3,0.1,0.5,0.1c0.3,0,0.4,0.1,0.6,0.1v0.6
			C98.2,53.7,98.6,53.7,98.6,53.7z"/>
		<path d="M110.6,53.5l-4,0.2l-0.1-0.1v-1.1l0,0c-0.2,0.2-0.4,0.3-0.6,0.5s-0.4,0.3-0.6,0.4c-0.3,0.2-0.5,0.3-0.8,0.3
			c-0.3,0.1-0.6,0.1-1.1,0.1c-0.8,0-1.5-0.3-1.9-0.8s-0.7-1.2-0.7-2.1v-3.7c0-0.2,0-0.4-0.1-0.5s-0.2-0.3-0.3-0.4
			c-0.1-0.1-0.3-0.1-0.4-0.2c-0.2,0-0.3-0.1-0.5-0.1v-0.6l4-0.2l0.1,0.1V51c0,0.6,0.1,1,0.3,1.3c0.2,0.3,0.5,0.4,0.9,0.4
			s0.7-0.1,1.1-0.3c0.3-0.2,0.5-0.4,0.7-0.7v-4.5c0-0.2,0-0.4-0.1-0.5s-0.2-0.3-0.3-0.4c-0.1-0.1-0.2-0.1-0.4-0.1
			c-0.2,0-0.4,0-0.6,0v-0.6l4-0.2l0.1,0.1v6.4c0,0.2,0,0.4,0.1,0.5s0.2,0.3,0.3,0.3c0.1,0.1,0.2,0.1,0.4,0.1c0.2,0,0.3,0,0.5,0V53.5
			z"/>
		<path d="M115.1,54c-0.5,0-1.1-0.1-1.6-0.2c-0.5-0.2-0.9-0.3-1.2-0.5l-0.2,0.6h-0.6l-0.1-3.1h0.6c0.1,0.2,0.2,0.5,0.4,0.8
			c0.2,0.3,0.4,0.6,0.7,0.8c0.3,0.2,0.6,0.5,0.9,0.6c0.3,0.2,0.7,0.3,1.1,0.3c0.5,0,0.9-0.1,1.1-0.3s0.4-0.5,0.4-0.9
			c0-0.2-0.1-0.4-0.2-0.5s-0.3-0.3-0.5-0.4c-0.2-0.1-0.5-0.2-0.7-0.3c-0.3-0.1-0.6-0.2-1-0.3s-0.7-0.2-1-0.3s-0.5-0.3-0.8-0.5
			c-0.2-0.2-0.4-0.5-0.6-0.8c-0.1-0.3-0.2-0.7-0.2-1.1c0-0.8,0.3-1.4,1-1.9s1.5-0.7,2.6-0.7c0.5,0,1,0.1,1.4,0.2
			c0.4,0.1,0.8,0.2,1.1,0.3l0.2-0.5h0.6l0.1,2.8H118c-0.2-0.6-0.5-1.1-1-1.5s-1-0.6-1.5-0.6c-0.4,0-0.8,0.1-1,0.3s-0.4,0.4-0.4,0.7
			c0,0.4,0.2,0.7,0.5,0.9s0.9,0.4,1.5,0.5c1,0.3,1.7,0.6,2.2,1s0.7,1,0.7,1.7c0,0.9-0.4,1.6-1.1,2.1S116.2,54,115.1,54z"/>
		<path d="M125.2,53.7H120v-0.6c0.1,0,0.3,0,0.4,0s0.3,0,0.4-0.1c0.2-0.1,0.3-0.2,0.4-0.3s0.1-0.3,0.1-0.5v-4.8c0-0.2,0-0.4-0.1-0.5
			s-0.2-0.3-0.3-0.4c-0.1-0.1-0.3-0.1-0.5-0.2c-0.2-0.1-0.4-0.1-0.6-0.1v-0.6l4.1-0.2l0.1,0.1v6.6c0,0.2,0,0.4,0.1,0.5
			s0.2,0.2,0.4,0.3c0.1,0.1,0.2,0.1,0.4,0.1c0.1,0,0.3,0.1,0.4,0.1v0.6C125.3,53.7,125.2,53.7,125.2,53.7z M124,42.4
			c0,0.4-0.2,0.8-0.5,1.1s-0.7,0.4-1.2,0.4c-0.4,0-0.8-0.1-1.2-0.4c-0.3-0.3-0.5-0.7-0.5-1.1s0.2-0.8,0.5-1.1s0.7-0.4,1.2-0.4
			s0.8,0.1,1.2,0.4C123.8,41.6,124,42,124,42.4z"/>
		<path d="M130.7,54c-0.8,0-1.4-0.1-2-0.3s-1.1-0.5-1.5-0.9s-0.7-0.9-0.9-1.4c-0.2-0.5-0.3-1.1-0.3-1.8c0-0.6,0.1-1.1,0.3-1.6
			s0.5-1,0.9-1.4s0.9-0.7,1.5-1c0.6-0.2,1.3-0.4,2-0.4c1,0,1.8,0.2,2.4,0.6c0.6,0.4,0.9,0.9,0.9,1.6c0,0.4-0.1,0.7-0.3,1
			c-0.2,0.2-0.6,0.4-1.1,0.4c-0.4,0-0.8-0.1-1-0.3c-0.3-0.2-0.4-0.5-0.4-0.8s0-0.5,0.1-0.8s0.1-0.5,0.2-0.6
			c-0.1-0.1-0.1-0.2-0.2-0.2c-0.1-0.1-0.2-0.1-0.4-0.1s-0.5,0.1-0.7,0.2c-0.2,0.1-0.4,0.3-0.6,0.6c-0.2,0.3-0.3,0.6-0.4,1.1
			s-0.2,1-0.2,1.7c0,1,0.2,1.8,0.7,2.4c0.5,0.6,1,0.9,1.7,0.9c0.6,0,1.1-0.1,1.5-0.4c0.4-0.3,0.7-0.7,1-1.2l0.6,0.4
			c-0.2,0.3-0.4,0.6-0.6,0.9c-0.2,0.3-0.5,0.5-0.9,0.7c-0.3,0.2-0.7,0.4-1.1,0.5C131.6,53.9,131.2,54,130.7,54z"/>
		<path d="M152.5,48.9c-0.2,0-0.3,0-0.5,0.1s-0.3,0.1-0.5,0.1c-0.2,0.1-0.4,0.2-0.4,0.4c-0.1,0.2-0.1,0.3-0.1,0.5v1.4
			c0,0.3,0,0.5,0,0.7s0,0.4,0,0.6c-0.6,0.3-1.4,0.6-2.5,0.9c-1.1,0.3-2.1,0.4-3,0.4s-1.7-0.1-2.4-0.4c-0.7-0.3-1.4-0.7-2-1.2
			s-1-1.2-1.3-1.9c-0.3-0.8-0.5-1.6-0.5-2.6c0-0.9,0.2-1.8,0.5-2.5c0.3-0.8,0.7-1.5,1.3-2c0.6-0.6,1.3-1,2.1-1.3s1.7-0.5,2.7-0.5
			c0.7,0,1.3,0.1,1.9,0.2c0.6,0.2,1,0.3,1.4,0.5l0.5-0.5h0.7l0.1,4.3h-0.7c-0.4-1.3-0.9-2.3-1.5-2.9c-0.6-0.6-1.3-0.9-2.2-0.9
			c-1.1,0-1.9,0.5-2.5,1.4s-0.9,2.2-0.9,3.8c0,1.7,0.3,3.1,0.9,4.1c0.6,1,1.4,1.5,2.4,1.5c0.5,0,0.9-0.1,1.3-0.2s0.7-0.3,0.9-0.5V50
			c0-0.2,0-0.4-0.1-0.5s-0.2-0.3-0.4-0.4c-0.2-0.1-0.4-0.1-0.6-0.2s-0.5-0.1-0.6-0.1v-0.6h6.1L152.5,48.9L152.5,48.9z"/>
		<path d="M161.3,47c0,0.4-0.1,0.8-0.4,1.1c-0.3,0.3-0.6,0.5-1,0.5s-0.7-0.1-1-0.3s-0.4-0.5-0.4-0.9c0-0.2,0-0.3,0-0.5
			c0-0.1,0.1-0.2,0.1-0.3c-0.3,0-0.5,0.1-0.8,0.3s-0.5,0.4-0.7,0.7v4.6c0,0.2,0,0.4,0.1,0.5s0.2,0.2,0.3,0.3s0.3,0.1,0.6,0.2
			c0.3,0,0.5,0.1,0.6,0.1v0.6H153v-0.6c0.1,0,0.3,0,0.4,0c0.1,0,0.3,0,0.4-0.1c0.2-0.1,0.3-0.2,0.4-0.3s0.1-0.3,0.1-0.5v-4.8
			c0-0.2,0-0.4-0.1-0.5c-0.1-0.2-0.2-0.3-0.3-0.4c-0.1-0.1-0.2-0.1-0.4-0.2c-0.2,0-0.3-0.1-0.5-0.1v-0.6l4-0.2l0.1,0.1v1.2l0,0
			c0.4-0.4,0.8-0.8,1.2-1c0.4-0.3,0.9-0.4,1.3-0.4c0.5,0,0.9,0.2,1.2,0.5S161.3,46.5,161.3,47z"/>
		<path d="M170.3,46.5c0.4,0.4,0.7,0.8,0.9,1.4s0.3,1.1,0.3,1.7c0,0.6-0.1,1.2-0.3,1.7s-0.5,1-0.9,1.4s-1,0.7-1.6,1
			c-0.6,0.2-1.3,0.3-2.1,0.3c-0.7,0-1.3-0.1-1.9-0.3c-0.6-0.2-1.1-0.5-1.5-0.9s-0.8-0.8-1-1.4c-0.2-0.5-0.4-1.2-0.4-1.8
			c0-0.7,0.1-1.3,0.3-1.8s0.5-1,1-1.4c0.4-0.4,0.9-0.7,1.5-0.9s1.3-0.3,2-0.3c0.8,0,1.5,0.1,2,0.3C169.4,45.8,169.9,46.1,170.3,46.5
			z M168.2,52.2c0.1-0.3,0.2-0.7,0.3-1.1c0.1-0.4,0.1-1,0.1-1.5c0-0.4,0-0.8-0.1-1.3s-0.1-0.9-0.2-1.2c-0.1-0.3-0.3-0.6-0.6-0.8
			c-0.2-0.2-0.5-0.3-0.9-0.3s-0.7,0.1-0.9,0.3s-0.4,0.5-0.5,0.8s-0.2,0.7-0.2,1.1c0,0.4-0.1,0.9-0.1,1.3c0,0.6,0,1.1,0.1,1.5
			c0,0.4,0.1,0.8,0.3,1.2c0.1,0.3,0.3,0.6,0.5,0.8s0.5,0.3,0.9,0.3c0.3,0,0.6-0.1,0.9-0.3C167.9,52.8,168.1,52.6,168.2,52.2z"/>
		<path d="M183.5,53.5l-4,0.2l-0.1-0.1v-1.1l0,0c-0.2,0.2-0.4,0.3-0.6,0.5s-0.4,0.3-0.6,0.4c-0.3,0.2-0.5,0.3-0.8,0.3
			c-0.3,0.1-0.6,0.1-1.1,0.1c-0.8,0-1.5-0.3-1.9-0.8s-0.7-1.2-0.7-2.1v-3.7c0-0.2,0-0.4-0.1-0.5s-0.2-0.3-0.3-0.4
			c-0.1-0.1-0.3-0.1-0.4-0.2c-0.2,0-0.3-0.1-0.5-0.1v-0.6l4-0.2l0.1,0.1V51c0,0.6,0.1,1,0.3,1.3s0.5,0.4,0.9,0.4s0.7-0.1,1.1-0.3
			c0.3-0.2,0.5-0.4,0.7-0.7v-4.5c0-0.2,0-0.4-0.1-0.5s-0.2-0.3-0.3-0.4c-0.1-0.1-0.2-0.1-0.4-0.1s-0.4,0-0.6,0v-0.6l4-0.2l0.1,0.1
			v6.4c0,0.2,0,0.4,0.1,0.5s0.2,0.3,0.3,0.3c0.1,0.1,0.2,0.1,0.4,0.1s0.3,0,0.5,0L183.5,53.5L183.5,53.5z"/>
		<path d="M194.3,49.7c0,1.2-0.4,2.2-1.2,3s-1.8,1.3-3,1.3c-0.5,0-1-0.1-1.3-0.2c-0.3-0.1-0.6-0.2-0.8-0.4l0,0v2.3
			c0,0.2,0,0.4,0.1,0.5s0.2,0.2,0.4,0.3c0.1,0.1,0.4,0.1,0.6,0.2c0.3,0,0.5,0.1,0.7,0.1v0.6h-6v-0.6c0.1,0,0.3,0,0.5-0.1
			c0.2,0,0.4-0.1,0.5-0.1c0.2-0.1,0.3-0.2,0.4-0.3s0.1-0.3,0.1-0.5v-8.5c0-0.2-0.1-0.3-0.1-0.5s-0.2-0.3-0.3-0.4
			c-0.1-0.1-0.3-0.1-0.4-0.2s-0.4-0.1-0.5-0.1v-0.6l4.1-0.2l0.1,0.1v0.9h0.1c0.4-0.4,0.8-0.7,1.2-0.9s0.9-0.3,1.3-0.3
			c1.1,0,2,0.4,2.7,1.2S194.3,48.4,194.3,49.7z M191.3,49.7c0-0.4,0-0.8-0.1-1.2s-0.2-0.7-0.3-1s-0.3-0.5-0.6-0.7
			c-0.2-0.2-0.5-0.3-0.9-0.3s-0.6,0.1-0.9,0.2c-0.2,0.1-0.4,0.3-0.6,0.5v4.7c0,0.1,0.1,0.3,0.2,0.4c0.1,0.2,0.2,0.3,0.3,0.4
			c0.1,0.1,0.3,0.3,0.5,0.3c0.2,0.1,0.4,0.1,0.6,0.1c0.5,0,1-0.3,1.3-0.9C191.1,51.7,191.3,50.9,191.3,49.7z"/>
	</g>
	<g class="st0">
		<path d="M67.3,108.6c-0.9,0-1.7-0.1-2.4-0.4c-0.8-0.3-1.4-0.7-2-1.2c-0.5-0.5-1-1.2-1.3-1.9s-0.5-1.6-0.5-2.5s0.2-1.8,0.5-2.5
			c0.3-0.8,0.8-1.5,1.3-2c0.6-0.6,1.2-1,2-1.3s1.6-0.5,2.5-0.5c0.7,0,1.2,0.1,1.8,0.2c0.5,0.2,1,0.3,1.4,0.5l0.5-0.5H72l0.1,4.3
			h-0.7c-0.4-1.3-0.9-2.3-1.5-2.9S68.6,97,67.8,97c-1,0-1.8,0.5-2.4,1.4c-0.5,0.9-0.8,2.2-0.8,3.9c0,0.9,0.1,1.7,0.3,2.4
			c0.2,0.7,0.4,1.2,0.7,1.6c0.3,0.4,0.7,0.7,1.1,0.9c0.4,0.2,0.9,0.3,1.5,0.3c0.8,0,1.5-0.2,2.1-0.6s1.2-1.1,1.7-1.9l0.7,0.4
			c-0.2,0.5-0.5,0.9-0.8,1.3s-0.7,0.7-1.1,1s-0.9,0.5-1.4,0.7C68.7,108.5,68.1,108.6,67.3,108.6z"/>
		<path d="M81.7,101c0.4,0.4,0.7,0.8,0.9,1.4s0.3,1.1,0.3,1.7s-0.1,1.2-0.3,1.7c-0.2,0.5-0.5,1-0.9,1.4s-1,0.7-1.6,1
			c-0.6,0.2-1.3,0.3-2.1,0.3c-0.7,0-1.3-0.1-1.9-0.3c-0.6-0.2-1.1-0.5-1.5-0.9s-0.8-0.8-1-1.4s-0.4-1.2-0.4-1.8
			c0-0.7,0.1-1.3,0.3-1.8c0.2-0.5,0.5-1,1-1.4c0.4-0.4,0.9-0.7,1.5-0.9c0.6-0.2,1.3-0.3,2-0.3c0.8,0,1.5,0.1,2,0.3
			C80.8,100.3,81.3,100.6,81.7,101z M79.6,106.8c0.1-0.3,0.2-0.7,0.3-1.1c0.1-0.4,0.1-1,0.1-1.5c0-0.4,0-0.8-0.1-1.3
			s-0.1-0.9-0.2-1.2c-0.1-0.3-0.3-0.6-0.6-0.8c-0.2-0.2-0.5-0.3-0.9-0.3s-0.7,0.1-0.9,0.3c-0.2,0.2-0.4,0.5-0.5,0.8
			s-0.2,0.7-0.2,1.1s-0.1,0.9-0.1,1.3c0,0.6,0,1.1,0.1,1.5s0.1,0.8,0.3,1.2c0.1,0.3,0.3,0.6,0.5,0.8s0.5,0.3,0.9,0.3
			c0.3,0,0.6-0.1,0.9-0.3S79.4,107.1,79.6,106.8z"/>
		<path d="M100.5,108.3h-4.9v-0.6c0.1,0,0.2,0,0.4,0s0.2,0,0.3-0.1c0.1-0.1,0.2-0.1,0.2-0.3c0-0.1,0-0.3,0-0.5v-3.9
			c0-0.6-0.1-1-0.3-1.3s-0.5-0.4-0.9-0.4c-0.2,0-0.5,0-0.6,0.1c-0.2,0.1-0.4,0.2-0.5,0.3c-0.2,0.1-0.3,0.2-0.4,0.3s-0.2,0.2-0.2,0.3
			v4.5c0,0.2,0,0.4,0.1,0.5c0,0.1,0.1,0.2,0.3,0.3c0.1,0.1,0.2,0.1,0.3,0.1c0.1,0,0.2,0.1,0.4,0.1v0.6H90v-0.6c0.1,0,0.2,0,0.4,0
			c0.1,0,0.3,0,0.3-0.1c0.1-0.1,0.2-0.1,0.2-0.3s0.1-0.3,0.1-0.5v-3.9c0-0.6-0.1-1-0.3-1.3s-0.5-0.4-0.9-0.4c-0.2,0-0.5,0-0.6,0.1
			c-0.2,0.1-0.4,0.2-0.5,0.3c-0.2,0.1-0.3,0.2-0.4,0.3s-0.2,0.2-0.2,0.3v4.5c0,0.2,0,0.4,0.1,0.5c0,0.1,0.1,0.2,0.3,0.3
			c0.1,0.1,0.2,0.1,0.3,0.1c0.1,0,0.2,0.1,0.4,0.1v0.6h-5v-0.6c0.1,0,0.3,0,0.4,0s0.3,0,0.4-0.1c0.2-0.1,0.3-0.2,0.4-0.3
			c0.1-0.1,0.1-0.3,0.1-0.5V102c0-0.2,0-0.3-0.1-0.5s-0.2-0.3-0.3-0.4c-0.1-0.1-0.2-0.1-0.4-0.2c-0.2,0-0.3-0.1-0.5-0.1v-0.6l4-0.2
			l0.1,0.1v1.2l0,0c0.2-0.1,0.3-0.3,0.6-0.5c0.2-0.2,0.4-0.3,0.6-0.5c0.2-0.1,0.5-0.2,0.8-0.3c0.3-0.1,0.7-0.1,1.1-0.1
			c0.6,0,1.2,0.1,1.6,0.4s0.7,0.6,0.9,1.1H94c0.2-0.1,0.4-0.3,0.6-0.5s0.4-0.4,0.6-0.5s0.5-0.3,0.8-0.3c0.3-0.1,0.7-0.1,1.1-0.1
			c0.8,0,1.5,0.2,1.9,0.7c0.5,0.5,0.7,1.2,0.7,2.1v4c0,0.2,0,0.4,0.1,0.5s0.2,0.2,0.3,0.3c0.1,0,0.2,0.1,0.3,0.1
			c0.1,0,0.3,0.1,0.5,0.1v0.5C100.9,108.3,100.5,108.3,100.5,108.3z"/>
		<path d="M111.4,104.2c0,1.2-0.4,2.2-1.2,3c-0.8,0.8-1.8,1.3-3,1.3c-0.5,0-1-0.1-1.3-0.2s-0.6-0.2-0.8-0.4H105v2.3
			c0,0.2,0,0.4,0.1,0.5s0.2,0.2,0.4,0.3c0.1,0.1,0.4,0.1,0.6,0.2c0.3,0,0.5,0.1,0.7,0.1v0.6h-6v-0.6c0.1,0,0.3,0,0.5-0.1
			s0.4-0.1,0.5-0.1c0.2-0.1,0.3-0.2,0.4-0.3c0.1-0.1,0.1-0.3,0.1-0.5v-8.5c0-0.2-0.1-0.3-0.1-0.5c-0.1-0.1-0.2-0.3-0.3-0.4
			c-0.1-0.1-0.3-0.1-0.4-0.2s-0.4-0.1-0.5-0.1V100l4.1-0.2l0.1,0.1v0.9h0.1c0.4-0.4,0.8-0.7,1.2-0.9c0.4-0.2,0.9-0.3,1.3-0.3
			c1.1,0,2,0.4,2.7,1.2S111.4,102.9,111.4,104.2z M108.4,104.3c0-0.4,0-0.8-0.1-1.2s-0.2-0.7-0.3-1c-0.1-0.3-0.3-0.5-0.6-0.7
			c-0.2-0.2-0.5-0.3-0.9-0.3s-0.6,0.1-0.9,0.2c-0.2,0.1-0.4,0.3-0.6,0.5v4.7c0,0.1,0.1,0.3,0.2,0.4c0.1,0.2,0.2,0.3,0.3,0.4
			c0.1,0.1,0.3,0.3,0.5,0.3c0.2,0.1,0.4,0.1,0.6,0.1c0.5,0,1-0.3,1.3-0.9C108.3,106.3,108.4,105.4,108.4,104.3z"/>
		<path d="M122,108.1c-0.2,0.1-0.5,0.2-0.9,0.3c-0.3,0.1-0.7,0.1-1.1,0.1c-0.7,0-1.2-0.1-1.5-0.3s-0.5-0.5-0.7-0.9l0,0
			c-0.2,0.2-0.4,0.3-0.5,0.5s-0.4,0.2-0.6,0.3c-0.3,0.1-0.5,0.2-0.8,0.3c-0.2,0.1-0.6,0.1-1,0.1c-0.6,0-1.2-0.2-1.6-0.6
			c-0.5-0.4-0.7-0.9-0.7-1.5c0-0.4,0-0.7,0.1-0.9s0.2-0.5,0.4-0.7c0.2-0.2,0.4-0.3,0.6-0.4s0.5-0.2,0.7-0.3c0.5-0.2,1.1-0.4,1.8-0.6
			c0.7-0.2,1.2-0.4,1.5-0.5v-0.8c0-0.1,0-0.3,0-0.5s-0.1-0.4-0.1-0.6c-0.1-0.2-0.2-0.3-0.4-0.4c-0.2-0.1-0.4-0.2-0.7-0.2
			c-0.2,0-0.4,0-0.6,0.1s-0.3,0.1-0.4,0.2c0,0.1,0.1,0.3,0.1,0.5c0.1,0.2,0.1,0.4,0.1,0.7c0,0.1,0,0.2-0.1,0.4
			c0,0.1-0.1,0.3-0.2,0.3c-0.1,0.1-0.3,0.2-0.4,0.3c-0.2,0.1-0.4,0.1-0.7,0.1c-0.5,0-0.8-0.1-1.1-0.3c-0.2-0.2-0.4-0.5-0.4-0.9
			c0-0.3,0.1-0.6,0.4-0.8c0.2-0.2,0.5-0.5,0.9-0.6c0.3-0.2,0.8-0.3,1.2-0.4c0.5-0.1,0.9-0.1,1.3-0.1c0.5,0,1,0,1.5,0.1
			s0.9,0.2,1.2,0.4c0.3,0.2,0.6,0.5,0.8,0.8c0.2,0.4,0.3,0.8,0.3,1.4s0,1.4,0,2.2c0,0.9,0,1.4,0,1.7c0,0.2,0,0.4,0.1,0.6
			c0.1,0.1,0.2,0.3,0.3,0.3c0.1,0,0.2,0.1,0.4,0.1c0.2,0,0.4,0,0.6,0v0.5C121.8,108.1,122,108.1,122,108.1z M117.9,103.8
			c-0.3,0.1-0.6,0.2-0.9,0.4c-0.3,0.1-0.6,0.3-0.8,0.4c-0.2,0.2-0.4,0.4-0.5,0.6s-0.2,0.5-0.2,0.9s0.1,0.7,0.3,0.9s0.4,0.3,0.7,0.3
			c0.3,0,0.6-0.1,0.8-0.2c0.2-0.1,0.4-0.3,0.5-0.5L117.9,103.8z"/>
		<path d="M133.6,108.3h-5v-0.6c0.1,0,0.2,0,0.4,0s0.3,0,0.3-0.1c0.1-0.1,0.2-0.1,0.2-0.3s0.1-0.3,0.1-0.5v-3.9c0-0.6-0.1-1-0.3-1.3
			s-0.5-0.4-0.9-0.4c-0.2,0-0.4,0-0.6,0.1s-0.4,0.2-0.6,0.3c-0.2,0.1-0.3,0.2-0.4,0.3c-0.1,0.1-0.2,0.2-0.2,0.3v4.5
			c0,0.2,0,0.4,0.1,0.5s0.1,0.2,0.3,0.3c0.1,0.1,0.2,0.1,0.3,0.1c0.1,0,0.3,0.1,0.4,0.1v0.6h-5v-0.6c0.1,0,0.3,0,0.4,0
			s0.3,0,0.4-0.1c0.2-0.1,0.3-0.2,0.4-0.3s0.1-0.3,0.1-0.5V102c0-0.2,0-0.3-0.1-0.5s-0.2-0.3-0.3-0.4c-0.1-0.1-0.2-0.1-0.4-0.2
			c-0.2,0-0.3-0.1-0.5-0.1v-0.6l4-0.2l0.1,0.1v1.2l0,0c0.2-0.1,0.3-0.3,0.6-0.5c0.2-0.2,0.4-0.4,0.6-0.5s0.5-0.2,0.8-0.3
			s0.7-0.1,1.1-0.1c0.9,0,1.6,0.3,2,0.8s0.7,1.2,0.7,2v4.1c0,0.2,0,0.4,0.1,0.5s0.2,0.2,0.3,0.3c0.1,0,0.2,0.1,0.3,0.1
			s0.3,0.1,0.4,0.1v0.5H133.6z"/>
		<path d="M143.7,100.6c-0.2,0-0.5,0.1-0.7,0.3c-0.2,0.1-0.4,0.4-0.6,0.7c-0.5,1-1,2.1-1.5,3.2s-1.1,2.4-1.7,3.7
			c-0.3,0.7-0.7,1.3-1,1.8c-0.3,0.4-0.6,0.8-0.9,1c-0.3,0.2-0.5,0.4-0.8,0.5s-0.5,0.1-0.8,0.1c-0.5,0-1-0.1-1.3-0.4s-0.5-0.6-0.5-1
			c0-0.2,0-0.3,0.1-0.4s0.1-0.3,0.2-0.4c0.1-0.1,0.2-0.2,0.4-0.3s0.4-0.1,0.6-0.1c0.3,0,0.6,0.1,0.9,0.3c0.3,0.2,0.6,0.5,0.9,0.9
			c0.2-0.2,0.4-0.5,0.7-0.8c0.3-0.4,0.5-0.7,0.6-1.1c-0.7-1.4-1.2-2.6-1.8-3.6c-0.5-1-1.1-2.1-1.7-3.4c-0.1-0.3-0.3-0.5-0.6-0.6
			s-0.5-0.2-0.7-0.3V100h5.1v0.6c-0.2,0-0.4,0-0.7,0.1c-0.2,0.1-0.4,0.2-0.4,0.3v0.1c0,0,0,0.1,0.1,0.2c0.2,0.4,0.5,0.9,0.8,1.6
			s0.7,1.5,1.2,2.4c0.3-0.8,0.6-1.5,0.9-2s0.5-1.1,0.7-1.7c0.1-0.1,0.1-0.2,0.1-0.3c0-0.1,0-0.1,0-0.2s0-0.2-0.1-0.3
			c-0.1-0.1-0.2-0.1-0.3-0.2s-0.3-0.1-0.4-0.1c-0.1,0-0.2,0-0.3-0.1V100h3.4v0.6H143.7z"/>
	</g>
	<g class="st0">
		<path d="M61.1,63.6c-0.2-0.8,0.2-1.3,1-1.3h4.5c0.7,0,1.2,0.3,1.3,1L70,79.2c0.1,0.4,0.4,0.4,0.5,0L73,63.4c0.1-0.6,0.6-1,1.3-1
			h3.3c0.7,0,1.1,0.3,1.3,1l2.5,15.8c0.1,0.4,0.4,0.4,0.5,0L84,63.4c0.1-0.6,0.6-1,1.3-1h4.5c0.8,0,1.2,0.5,1,1.3L86.1,88
			c-0.1,0.6-0.6,1-1.3,1h-5.4c-0.7,0-1.1-0.3-1.3-1L76,78.7c-0.1-0.4-0.4-0.4-0.5,0L73.6,88c-0.2,0.6-0.6,1-1.3,1H67
			c-0.7,0-1.1-0.3-1.3-1L61.1,63.6z"/>
		<path d="M102.2,62.4c0.7,0,1.1,0.4,1.2,1l2.7,11.1c0.1,0.4,0.4,0.4,0.5,0l2.7-11.1c0.2-0.6,0.5-1,1.2-1h7.9c0.8,0,1.1,0.4,1.1,1.1
			v24.3c0,0.7-0.4,1.1-1.1,1.1h-4.3c-0.7,0-1.1-0.4-1.1-1.1v-15c0-0.3-0.3-0.3-0.4,0L108.9,88c-0.2,0.6-0.6,1-1.3,1h-2.5
			c-0.7,0-1.1-0.3-1.3-1l-3.7-15.2c-0.1-0.3-0.4-0.2-0.4,0v15c0,0.7-0.4,1.1-1.1,1.1h-4.3c-0.8,0-1.1-0.4-1.1-1.1V63.5
			c0-0.8,0.4-1.1,1.1-1.1H102.2z"/>
		<path d="M122.9,70.9c0-2.5,0.5-9.2,9.5-9.2c8,0,9.3,5.2,9.5,8.2c0,0.7-0.3,1.1-1,1.3l-4.3,0.9c-0.8,0.2-1.2-0.2-1.3-1
			c-0.2-1.8-0.8-2.9-3-2.9c-2.8,0-3,1.8-3,4.7v5.5c0,2.9,0.2,4.7,3,4.7s3-1.8,3-3.6h-2.2c-0.7,0-1.1-0.4-1.1-1.1v-3
			c0-0.8,0.4-1.1,1.1-1.1h7.6c0.8,0,1.1,0.4,1.1,1.1v5.1c0,2.5-0.5,9.2-9.5,9.2s-9.5-6.7-9.5-9.2L122.9,70.9L122.9,70.9z"/>
	</g>
</g>
</svg>
